<svg width="38" height="38" viewBox="0 0 38 38" fill="none" xmlns="http://www.w3.org/2000/svg">
  <ellipse cx="19" cy="32" rx="10" ry="4" fill="#2563EB" fill-opacity="0.25"/>
  <path d="M19 4C12.3726 4 7 9.37258 7 16.0001C7 23.5 17.5 34 18.5 34.9C18.8 35.2 19.2 35.2 19.5 34.9C20.5 34 31 23.5 31 16.0001C31 9.37258 25.6274 4 19 4ZM19 21C16.2386 21 14 18.7614 14 16C14 13.2386 16.2386 11 19 11C21.7614 11 24 13.2386 24 16C24 18.7614 21.7614 21 19 21Z" fill="#2563EB"/>
  <circle cx="19" cy="16" r="5" fill="#fff" stroke="#2563EB" stroke-width="2"/>
</svg>
